<svg width="121" height="121" viewBox="0 0 121 121" fill="none" xmlns="http://www.w3.org/2000/svg">
<circle cx="60.5" cy="60.5" r="56.5" fill="#F6E6C2" stroke="#676151" stroke-width="8"/>
<path d="M60.9999 22C52.2579 22 45.2019 28.948 44.6859 37.564C36.9399 36.04 28.9149 40.069 26.0319 47.686C23.0319 55.609 26.8059 64.27 34.1859 68.032C29.2779 74.944 30.3099 84.613 36.9069 90.157C43.8549 96.004 54.3189 95.044 60.1569 88.093C60.5169 87.661 60.6129 87.073 60.9069 86.593C61.2219 87.109 61.3509 87.718 61.7499 88.189C67.5999 95.137 78.0519 96.097 84.9999 90.25C91.6089 84.685 92.5689 75.04 87.6249 68.125C95.1369 64.411 98.9949 55.669 95.9679 47.686C93.0879 40.069 85.0479 36.04 77.3139 37.564C76.7949 28.948 69.7389 22 60.9999 22ZM60.9999 28C66.8349 28 71.4999 32.665 71.4999 38.5C71.4999 38.968 71.3019 39.814 70.9359 40.843C70.9269 40.879 70.9479 40.903 70.9359 40.936L62.0319 53.596C62.9679 50.5 63.9999 46.981 63.9999 46C63.9999 44.35 62.6499 43 60.9999 43C59.3499 43 57.9999 44.35 57.9999 46C57.9999 46.948 58.8189 50.278 59.5929 53.314L50.8749 40.186C50.6769 39.496 50.4999 38.875 50.4999 38.5C50.4999 32.665 55.1649 28 60.9999 28ZM41.1249 43C42.4959 42.952 43.8909 43.141 45.2499 43.657C45.4839 43.738 45.8709 44.056 46.3749 44.407C46.4109 44.431 46.4349 44.383 46.4679 44.407L54.8109 57.064C52.1889 55.282 49.2579 53.359 48.3429 53.032C47.597 52.7583 46.7729 52.7921 46.0519 53.126C45.3309 53.4599 44.7721 54.0666 44.4984 54.8125C44.2247 55.5584 44.2585 56.3825 44.5924 57.1035C44.9263 57.8245 45.533 58.3833 46.2789 58.657C47.1849 58.987 50.6979 59.23 53.8749 59.407L38.6859 63.625C38.3019 63.556 37.9719 63.427 37.7499 63.343C36.4546 62.8542 35.2687 62.1141 34.2606 61.1652C33.2524 60.2163 32.4419 59.0774 31.8756 57.814C31.3093 56.5507 30.9984 55.1878 30.9609 53.8039C30.9234 52.4199 31.1599 51.0422 31.6569 49.75C32.3912 47.8151 33.6825 46.1412 35.3677 44.9398C37.0529 43.7384 39.0563 43.0634 41.1249 43ZM80.8749 43C82.9435 43.0634 84.9469 43.7384 86.6321 44.9398C88.3172 46.1412 89.6085 47.8151 90.3429 49.75C90.8382 51.0423 91.0735 52.4198 91.0352 53.8033C90.9969 55.1867 90.6857 56.5491 90.1196 57.812C89.5535 59.0749 88.7436 60.2137 87.7363 61.1628C86.729 62.112 85.5442 62.8529 84.2499 63.343C83.6128 63.5524 82.9513 63.6784 82.2819 63.718L67.6569 59.407C70.9269 59.23 74.7579 59.008 75.7179 58.657C76.0872 58.5217 76.4263 58.3149 76.7157 58.0486C77.0052 57.7822 77.2393 57.4614 77.4048 57.1046C77.5703 56.7477 77.6638 56.3618 77.6802 55.9687C77.6965 55.5757 77.6352 55.1833 77.4999 54.814C77.3646 54.4447 77.1578 54.1056 76.8914 53.8161C76.6251 53.5267 76.3043 53.2926 75.9474 53.1271C75.5906 52.9616 75.2046 52.868 74.8116 52.8517C74.4186 52.8354 74.0262 52.8967 73.6569 53.032C72.6609 53.383 69.4029 55.516 66.7179 57.343L75.8139 44.218C76.1889 43.96 76.5639 43.726 76.7499 43.657C78.0673 43.1649 79.4698 42.9415 80.8749 43ZM55.9359 65.125C53.2659 66.988 49.9839 69.286 49.2819 70.093C48.2019 71.347 48.4029 73.327 49.6569 74.407C49.9584 74.6594 50.3068 74.8499 50.682 74.9676C51.0572 75.0854 51.4519 75.128 51.8436 75.0932C52.2353 75.0584 52.6162 74.9468 52.9648 74.7647C53.3133 74.5826 53.6226 74.3336 53.8749 74.032C54.6849 73.093 56.7699 68.347 57.9999 65.5V76.564C57.4479 80.161 56.3589 83.302 55.5609 84.25C54.6776 85.3131 53.5927 86.1909 52.3687 86.8328C51.1446 87.4748 49.8057 87.8681 48.4289 87.9903C47.0522 88.1124 45.6649 87.9609 44.347 87.5445C43.029 87.1281 41.8065 86.455 40.7499 85.564C39.6864 84.6807 38.8082 83.5956 38.166 82.3713C37.5238 81.147 37.1303 79.8077 37.0081 78.4306C36.886 77.0535 37.0376 75.6659 37.4543 74.3476C37.871 73.0294 38.5444 71.8067 39.4359 70.75C39.7539 70.375 40.4799 69.811 41.4069 69.25L41.7819 69.061L55.9359 65.125ZM66.3459 65.314L80.6859 69.439C81.5199 69.964 82.1769 70.492 82.4679 70.843C83.3584 71.9 84.0311 73.1227 84.4474 74.4407C84.8636 75.7586 85.0152 77.1459 84.8933 78.5227C84.7715 79.8994 84.3786 81.2385 83.7374 82.4629C83.0962 83.6873 82.2192 84.7728 81.1569 85.657C80.0997 86.5473 78.8768 87.2198 77.5588 87.6358C76.2407 88.0518 74.8534 88.2031 73.4766 88.081C72.0998 87.9589 70.7608 87.5658 69.5365 86.9243C68.3122 86.2828 67.2269 85.4055 66.3429 84.343C65.5809 83.443 64.5639 80.512 63.9999 77.125V65.5C65.2299 68.35 67.3149 73.093 68.1249 74.032C69.2049 75.286 71.0889 75.484 72.3429 74.407C73.5969 73.327 73.7979 71.347 72.7179 70.093C72.0519 69.319 68.9949 67.165 66.3459 65.314Z" fill="#676151"/>
</svg>
